<svg width="14" height="14" viewBox="0 0 14 14" fill="none" xmlns="http://www.w3.org/2000/svg">
<g clip-path="url(#clip0)">
<path d="M12 4.5H9.49999C9.22384 4.5 8.99999 4.72386 8.99999 5.00001C8.99999 5.27616 9.22384 5.50002 9.49999 5.50002H12C12.2761 5.50002 12.5 5.72388 12.5 6.00003V12.5C12.5 12.7762 12.2761 13 12 13H2C1.72385 13 1.49999 12.7762 1.49999 12.5V6C1.49999 5.72385 1.72385 5.49999 2 5.49999H4.49999C4.77614 5.49999 5 5.27613 5 4.99998C5 4.72383 4.77614 4.5 4.49999 4.5H2C1.17157 4.5 0.5 5.17157 0.5 6V12.5C0.5 13.3284 1.17157 14 2 14H12C12.8284 14 13.5 13.3284 13.5 12.5V6C13.5 5.17157 12.8284 4.5 12 4.5Z" fill="black"/>
<path d="M9.84219 7.1465C9.64842 6.95938 9.34124 6.95938 9.1475 7.1465L7.49999 8.79298V0.500009C7.49999 0.223857 7.27613 0 6.99998 0C6.72383 0 6.49997 0.223857 6.49997 0.500009V8.79301L4.85346 7.1465C4.65482 6.95466 4.3383 6.96014 4.14646 7.15877C3.95932 7.35254 3.95932 7.65975 4.14646 7.85349L6.64645 10.3535C6.84148 10.549 7.15807 10.5494 7.35356 10.3544C7.35386 10.3541 7.35415 10.3538 7.35447 10.3535L9.85446 7.85349C10.0463 7.65486 10.0408 7.33834 9.84219 7.1465Z" fill="black"/>
</g>
<defs>
<clipPath id="clip0">
<rect width="14" height="14" fill="white"/>
</clipPath>
</defs>
</svg>
